PathFileType	4	(X/Y/Z)	C:/Users/opensim2020/Desktop/walking_exp_matlab/subject03_walking12_straight_02.trc																																																																																																																																														
DataRate	CameraRate	NumFrames	NumMarkers	Units	OrigDataRate	OrigDataStartFrame	OrigNumFrames																																																																																																																																										
100	100	7	48	mm	100	1194	187																																																																																																																																										
Frame#	Time	LFHD			RFHD			LBHD			RBHD			C7			T10			CLAV			STRN			RBAK			LSHO			LUPA			LELB			LFRM			LWRA			LWRB			LFIN			RSHO			RUPA			RELB			RFRM			RWRA			RWRB			RFIN			LASI			RASI			LPSI			RPSI			LTHI			LKNE			LTIB			LANK			LHEE			LTOE			RTHI			RKNE			RTIB			RANK			RHEE			RTOE			*39			*40			*41			*42			*43			*44			*45			*46			*47		
		X1	Y1	Z1	X2	Y2	Z2	X3	Y3	Z3	X4	Y4	Z4	X5	Y5	Z5	X6	Y6	Z6	X7	Y7	Z7	X8	Y8	Z8	X9	Y9	Z9	X10	Y10	Z10	X11	Y11	Z11	X12	Y12	Z12	X13	Y13	Z13	X14	Y14	Z14	X15	Y15	Z15	X16	Y16	Z16	X17	Y17	Z17	X18	Y18	Z18	X19	Y19	Z19	X20	Y20	Z20	X21	Y21	Z21	X22	Y22	Z22	X23	Y23	Z23	X24	Y24	Z24	X25	Y25	Z25	X26	Y26	Z26	X27	Y27	Z27	X28	Y28	Z28	X29	Y29	Z29	X30	Y30	Z30	X31	Y31	Z31	X32	Y32	Z32	X33	Y33	Z33	X34	Y34	Z34	X35	Y35	Z35	X36	Y36	Z36	X37	Y37	Z37	X38	Y38	Z38	X39	Y39	Z39	X40	Y40	Z40	X41	Y41	Z41	X42	Y42	Z42	X43	Y43	Z43	X44	Y44	Z44	X45	Y45	Z45	X46	Y46	Z46	X47	Y47	Z47	X48	Y48	Z48
																																																																																																																																																	
94	0.93	-118.7375	1625.88098	-1489.7146	-143.34871	1631.38135	-1358.82874	-245.33434	1581.29175	-1507.00977	-265.01691	1586.61353	-1377.32336	-282.74481	1419.85193	-1451.70227	-308.73801	1106.19739	-1458.41528	-161.88591	1346.20642	-1431.84351	-113.29716	1182.5509	-1432.97107	-345.86075	1241.49744	-1366.83679	-184.74054	1383.6842	-1592.43066	-168.07785	1189.552	-1666.55518	-146.20726	1068.43347	-1679.27454	-108.18383	943.31	-1679.17078	-86.40017	825.39911	-1651.3905	-98.1898	832.88806	-1705.66748	-70.50614	755.50964	-1701.21436	-236.74025	1369.77991	-1282.34229	-236.09056	1146.74023	-1213.50439	-212.07558	1035.89648	-1201.78845	-181.51814	902.23468	-1201.29871	-135.968	812.79224	-1235.08435	-172.79161	802.05212	-1196.0647	-138.30034	735.7821	-1204.30933	-128.21771	947.80865	-1559.08655	-154.47461	943.88434	-1322.46521	-294.19626	969.6134	-1526.13171	-309.49884	969.45209	-1377.74866	-187.77568	642.84204	-1597.19153	-198.08862	468.3494	-1553.27356	-264.10574	279.84338	-1558.48499	-307.86087	74.38906	-1517.95081	-353.36328	40.94582	-1484.83582	-159.49016	35.42173	-1486.62061	-139.72665	650.57123	-1284.82214	-65.74997	486.55011	-1309.87195	-167.76259	324.27866	-1313.00171	-280.55045	141.89642	-1362.23511	-331.70453	128.97807	-1418.0802	-172.2383	53.11179	-1370.36597	-206.67719	1683.92871	-1448.05469	NaN	NaN	NaN	NaN	NaN	NaN	NaN	NaN	NaN	NaN	NaN	NaN	NaN	NaN	NaN	NaN	NaN	NaN	NaN	NaN	NaN	NaN	NaN	NaN
95	0.94	-105.12816	1625.1073	-1489.45264	-129.97758	1630.55115	-1358.61865	-231.80905	1580.81287	-1506.97705	-251.56804	1585.95959	-1377.396	-269.60571	1419.42273	-1451.7135	-295.92142	1105.70435	-1458.53235	-148.81328	1345.49487	-1432.10669	-100.23792	1181.99622	-1433.92578	-332.6788	1240.85168	-1367.19336	-171.92065	1383.44006	-1592.44092	-152.87062	1190.2323	-1667.1814	-127.98921	1069.72986	-1679.98694	-85.68278	946.03168	-1678.71777	-59.19711	829.44214	-1649.80664	-71.43237	835.83881	-1704.01379	-39.68675	760.29425	-1699.05066	-223.37054	1368.77734	-1282.51392	-225.68759	1145.65466	-1213.66199	-203.51073	1034.49451	-1201.6582	-175.29901	900.23932	-1201.13379	-131.10718	810.01642	-1234.526	-168.42657	799.87189	-1196.00439	-135.12825	733.04071	-1203.7749	-117.07559	946.47943	-1560.0083	-140.67105	943.58618	-1323.19666	-282.18594	968.81793	-1525.67883	-296.36145	968.81158	-1377.26257	-180.17281	642.12006	-1596.82483	-194.29474	467.53955	-1553.40857	-262.15558	280.19498	-1558.4176	-307.71161	75.08269	-1517.74927	-353.29614	41.94606	-1484.57263	-159.45453	35.49939	-1486.75061	-122.97638	651.79407	-1284.69458	-46.77812	488.75079	-1310.96985	-140.32002	320.3129	-1313.62671	-241.18454	130.8273	-1362.68799	-291.61002	114.55933	-1418.66711	-127.09603	49.86314	-1370.31775	-192.92529	1683.31091	-1447.75903	NaN	NaN	NaN	NaN	NaN	NaN	NaN	NaN	NaN	NaN	NaN	NaN	NaN	NaN	NaN	NaN	NaN	NaN	NaN	NaN	NaN	NaN	NaN	NaN
96	0.95	-91.49393	1624.1333	-1489.25293	-116.48086	1629.46826	-1358.41003	-218.22772	1580.146	-1506.95654	-238.16812	1585.14392	-1377.42419	-256.431	1418.58862	-1451.57813	-282.957	1105.00549	-1458.60779	-135.58871	1344.60474	-1432.45532	-87.29986	1180.77075	-1434.77808	-319.43579	1239.90845	-1367.52551	-159.22038	1382.95972	-1592.44202	-137.7428	1190.66711	-1667.74231	-110.1221	1070.9093	-1680.89636	-63.21949	948.81384	-1678.33875	-31.84774	833.77936	-1648.07959	-44.52517	839.0708	-1702.32813	-9.36669	765.263	-1696.60071	-209.88704	1367.44934	-1282.58057	-214.99124	1144.31714	-1213.84839	-194.67424	1032.83142	-1201.57544	-169.01535	898.09338	-1200.89929	-126.26493	807.00385	-1234.026	-164.20905	797.55048	-1195.66077	-131.95616	730.16028	-1203.30237	-105.44137	945.16962	-1561.01672	-126.73482	943.0589	-1323.86829	-270.2507	967.84558	-1524.98108	-283.06369	967.77832	-1376.57935	-172.45557	641.34149	-1596.54138	-189.73271	466.92178	-1553.64954	-259.96408	280.58243	-1558.26135	-307.86493	75.96504	-1517.69604	-353.46811	43.28066	-1484.17273	-159.31137	35.37565	-1486.65527	-106.07427	652.46179	-1284.42712	-28.68152	490.4137	-1311.94836	-112.92728	316.01877	-1314.03735	-200.67668	119.98421	-1362.99744	-249.64772	100.32333	-1419.10852	-81.53478	47.11652	-1370.36597	-179.2527	1682.59436	-1447.91174	NaN	NaN	NaN	NaN	NaN	NaN	NaN	NaN	NaN	NaN	NaN	NaN	NaN	NaN	NaN	NaN	NaN	NaN	NaN	NaN	NaN	NaN	NaN	NaN
97	0.96	-77.92672	1623.0376	-1489.04797	-103.04469	1628.12085	-1358.17969	-204.69193	1579.23633	-1506.94531	-224.78918	1584.10657	-1377.42798	-243.2348	1417.5675	-1451.38928	-270.10736	1103.92505	-1458.30957	-122.32777	1343.38086	-1432.83228	-74.15955	1179.55029	-1435.79126	-306.09879	1238.63953	-1367.81421	-146.55553	1382.25415	-1592.53284	-122.70121	1190.92896	-1668.43823	-92.37786	1071.92944	-1681.82007	-40.90125	951.66193	-1678.12988	-4.49315	838.74585	-1646.37854	-17.68786	842.55396	-1700.62463	20.55248	770.36877	-1693.91504	-196.17096	1365.93018	-1282.73425	-204.03644	1142.79224	-1214.01904	-185.60007	1031.02722	-1201.49561	-162.4017	895.80298	-1200.77893	-121.29913	804.04974	-1233.50977	-159.4736	795.13794	-1195.5946	-128.63799	727.18835	-1202.85706	-93.42747	943.93164	-1562.12402	-112.32363	942.48895	-1324.45056	-258.38934	966.61914	-1524.09631	-269.73865	966.49701	-1375.69519	-164.73404	640.46576	-1596.30774	-185.03867	466.02539	-1553.62683	-257.73532	280.93723	-1557.90125	-307.66684	76.81378	-1517.28357	-353.41025	44.4216	-1483.65833	-159.46735	35.16517	-1486.47742	-88.65089	653.10217	-1283.77954	-11.46545	491.30698	-1312.8136	-85.7838	311.6553	-1314.3125	-159.61092	109.69652	-1363.37695	-207.23398	86.89651	-1419.3584	-35.67637	45.01716	-1370.67151	-165.3851	1681.4563	-1447.36499	NaN	NaN	NaN	NaN	NaN	NaN	NaN	NaN	NaN	NaN	NaN	NaN	NaN	NaN	NaN	NaN	NaN	NaN	NaN	NaN	NaN	NaN	NaN	NaN
98	0.97	-64.25763	1621.77002	-1488.84314	-89.55358	1626.63	-1357.98389	-191.10429	1578.18994	-1507.00171	-211.30563	1582.7356	-1377.42676	-229.94127	1416.29187	-1451.23328	-257.24643	1102.62036	-1457.84131	-109.11844	1342.00024	-1433.21497	-61.1777	1178.03369	-1436.7915	-292.70438	1237.12952	-1368.07361	-134.06317	1381.26221	-1592.63049	-107.78319	1190.99951	-1669.0802	-75.1934	1072.60547	-1682.72375	-18.90771	954.65125	-1678.00549	22.66019	844.02423	-1644.75146	8.82499	846.28955	-1698.85852	50.01041	775.58545	-1690.99951	-182.4341	1364.21228	-1282.84912	-192.77585	1141.02771	-1214.14404	-176.26077	1029.078	-1201.48901	-155.75929	893.44189	-1200.59302	-116.3469	800.78546	-1233.09302	-155.01567	792.67426	-1195.2666	-125.15932	724.2171	-1202.46362	-82.49841	942.02686	-1563.04041	-98.55087	941.21405	-1324.92627	-246.53107	965.19238	-1522.9718	-256.27353	964.9585	-1374.61804	-157.03691	639.57263	-1596.33154	-179.66145	465.4238	-1553.67834	-254.96715	281.29514	-1557.71021	-307.27701	77.66031	-1516.80164	-353.32928	45.85123	-1483.05212	-159.41777	35.13382	-1486.61047	-73.02862	652.89716	-1283.49854	4.78181	491.64505	-1313.45166	-58.91946	307.31079	-1314.46765	-117.689	100.32506	-1363.58154	-163.28389	75.1951	-1420.1969	10.18492	43.75318	-1371.06006	-151.70694	1680.29224	-1447.21143	NaN	NaN	NaN	NaN	NaN	NaN	NaN	NaN	NaN	NaN	NaN	NaN	NaN	NaN	NaN	NaN	NaN	NaN	NaN	NaN	NaN	NaN	NaN	NaN
99	0.98	-50.66303	1620.26709	-1488.63855	-76.08587	1624.89722	-1357.75696	-177.50665	1576.94397	-1506.97717	-197.75626	1581.0636	-1377.06006	-216.85155	1415.10632	-1451.17078	-244.41896	1101.10571	-1457.18274	-95.83266	1340.33447	-1433.61133	-48.03545	1176.37122	-1437.73096	-279.25128	1235.3822	-1368.13074	-121.4464	1380.13379	-1592.82642	-92.93955	1190.8562	-1669.78125	-57.99971	1073.21265	-1683.85059	2.762	957.69586	-1677.95557	49.55118	849.75452	-1643.0686	35.15173	850.24084	-1697.04211	78.73894	780.98651	-1687.81458	-168.53882	1362.33228	-1282.8916	-181.25134	1139.14783	-1214.25989	-166.63895	1027.03406	-1201.44946	-148.74893	890.97571	-1200.49756	-111.1221	797.6875	-1232.7384	-149.94324	790.19385	-1195.16016	-121.73045	721.24445	-1202.16394	-70.76021	940.60291	-1563.85315	-84.56577	939.76721	-1325.43713	-234.50063	963.34442	-1521.67688	-242.68808	963.15808	-1373.3634	-149.01877	638.74023	-1596.1748	-173.99779	464.67941	-1553.62061	-252.07405	281.66428	-1557.26099	-306.43945	78.09415	-1515.77209	-353.22372	47.33249	-1481.9657	-159.38934	34.9102	-1486.37451	-56.99912	652.17047	-1282.94641	20.19633	491.1922	-1314.02148	-32.49107	303.21808	-1314.65833	-75.48886	92.12538	-1363.72107	-119.28702	63.70998	-1419.91003	55.916	43.6427	-1371.46667	NaN	NaN	NaN	NaN	NaN	NaN	NaN	NaN	NaN	NaN	NaN	NaN	NaN	NaN	NaN	NaN	NaN	NaN	NaN	NaN	NaN	NaN	NaN	NaN	NaN	NaN	NaN
100	0.99	-36.99642	1618.72656	-1488.41479	-62.50937	1623.08118	-1357.53979	-163.93762	1575.48267	-1506.8927	-184.20544	1579.35645	-1376.93335	-203.42038	1413.34668	-1450.83691	-231.53778	1099.46643	-1456.38892	-82.44799	1338.71313	-1434.04736	-34.79708	1174.58984	-1438.68542	-265.70511	1233.44678	-1368.02881	-108.85442	1378.78162	-1592.9563	-78.22838	1190.51917	-1670.44958	-41.18457	1073.55054	-1684.8302	24.05162	960.80377	-1677.92432	76.29003	855.76324	-1641.50732	60.97146	854.39117	-1695.18909	107.11658	786.63226	-1684.56006	-154.52898	1360.45471	-1282.98486	-169.49901	1137.21057	-1214.2959	-156.75323	1024.8645	-1201.56775	-141.54356	888.55023	-1200.39514	-105.83877	794.36224	-1232.54077	-144.73302	787.74915	-1194.95398	-117.99201	718.20526	-1201.9281	-59.16093	939.03363	-1564.65613	-70.10216	938.10461	-1325.85901	-222.5614	961.55225	-1520.28418	-228.98711	961.23804	-1371.95605	-140.87149	637.81696	-1596.21448	-168.38823	463.87299	-1553.32959	-249.13332	282.20816	-1556.58875	-306.13086	79.36257	-1515.10303	-353.12006	49.20626	-1481.0426	-159.17975	34.87664	-1486.48755	-41.57076	651.30231	-1282.63574	34.69207	490.08435	-1314.42493	-6.74363	299.4682	-1314.71509	-33.89714	85.64439	-1363.81335	-75.21806	54.82702	-1420.2561	100.98208	44.68893	-1371.72192	-124.33776	1677.49634	-1446.8689	NaN	NaN	NaN	NaN	NaN	NaN	NaN	NaN	NaN	NaN	NaN	NaN	NaN	NaN	NaN	NaN	NaN	NaN	NaN	NaN	NaN	NaN	NaN	NaN
